<?xml version="1.0" encoding="UTF-8"?>
<!--Generator: Apple Native CoreSVG 326-->
<!DOCTYPE svg
PUBLIC "-//W3C//DTD SVG 1.1//EN"
       "http://www.w3.org/Graphics/SVG/1.1/DTD/svg11.dtd">
<svg version="1.1" xmlns="http://www.w3.org/2000/svg" xmlns:xlink="http://www.w3.org/1999/xlink" viewBox="0 0 15.7715 15.8633">
 <g>
  <rect height="15.8633" opacity="0" width="15.7715" x="0" y="0"/>
  <path d="M15.7715 7.88086C15.7715 12.2266 12.2363 15.7617 7.88086 15.7617C3.53516 15.7617 0 12.2266 0 7.88086C0 3.53516 3.53516 0 7.88086 0C12.2363 0 15.7715 3.53516 15.7715 7.88086ZM3.36719 11.777C3.08761 11.777 2.85769 12.0066 2.85769 12.2865C2.85769 12.5689 3.08761 12.796 3.36719 12.796L12.4045 12.796C12.6844 12.796 12.914 12.5689 12.914 12.2865C12.914 12.0066 12.6844 11.777 12.4045 11.777L12.178 11.777L12.178 11.163L11.9939 11.163C11.2093 11.163 10.9235 10.648 10.5034 10.648C10.105 10.648 9.80019 11.163 9.21882 11.163C8.61798 11.163 8.29925 10.648 7.887 10.648C7.47197 10.648 7.15292 11.163 6.55764 11.163C5.97348 11.163 5.66866 10.648 5.27031 10.648C4.84736 10.648 4.56158 11.163 3.78012 11.163L3.59341 11.163L3.59341 11.777ZM7.56081 3.17574C7.35961 3.42151 7.20369 3.69679 7.20369 4.11974C7.20369 4.3899 7.32742 4.62409 7.51426 4.75857L7.51426 6.30748L6.49207 6.30748C5.51834 6.30748 5.01544 6.79476 5.01544 7.76328L5.01544 7.91407L10.756 7.91407L10.756 7.76328C10.756 6.79718 10.2583 6.30748 9.27933 6.30748L8.25663 6.30748L8.25663 4.76152C8.44475 4.62767 8.56526 4.39197 8.56526 4.11974C8.56526 3.71904 8.43926 3.44133 8.23077 3.20699C8.04164 2.97301 7.75238 2.96748 7.56081 3.17574ZM3.78012 10.5321C4.36368 10.5321 4.6943 10.0171 5.27031 10.0171C5.84597 10.0171 6.10575 10.5321 6.55764 10.5321C7.05991 10.5321 7.30545 10.0171 7.887 10.0171C8.46822 10.0171 8.71131 10.5321 9.21882 10.5321C9.6707 10.5321 9.92771 10.0171 10.5034 10.0171C11.0794 10.0171 11.4103 10.5321 11.9939 10.5321L12.178 10.5321L12.178 9.99186C12.178 9.02544 11.6806 8.53606 10.7014 8.53606L5.07247 8.53606C4.09353 8.53606 3.59341 9.02301 3.59341 9.99186L3.59341 10.5321Z" fill="black" fill-opacity="0.85"/>
 </g>
</svg>
