<?xml version="1.0" encoding="UTF-8"?>
<!--Generator: Apple Native CoreSVG 326-->
<!DOCTYPE svg
PUBLIC "-//W3C//DTD SVG 1.1//EN"
       "http://www.w3.org/Graphics/SVG/1.1/DTD/svg11.dtd">
<svg version="1.1" xmlns="http://www.w3.org/2000/svg" xmlns:xlink="http://www.w3.org/1999/xlink" viewBox="0 0 25.4391 25.5364">
 <g>
  <rect height="25.5364" opacity="0" width="25.4391" x="0" y="0"/>
  <path d="M25.4391 12.7143C25.4391 19.7168 19.7273 25.4285 12.7143 25.4285C5.71178 25.4285 8.88178e-16 19.7168 8.88178e-16 12.7143C8.88178e-16 5.71178 5.71178 0 12.7143 0C19.7273 0 25.4391 5.71178 25.4391 12.7143ZM5.5602 19.058C5.20311 19.058 4.91015 19.3523 4.91015 19.708C4.91015 20.0692 5.20311 20.3581 5.5602 20.3581L19.8791 20.3581C20.2348 20.3581 20.5291 20.0692 20.5291 19.708C20.5291 19.3523 20.2348 19.058 19.8791 19.058L19.4039 19.058L19.4039 17.794L19.134 17.794C17.9162 17.794 17.4667 16.9969 16.817 16.9969C16.1899 16.9969 15.7218 17.794 14.8007 17.794C13.8509 17.794 13.3623 16.9969 12.7147 16.9969C12.063 16.9969 11.5758 17.794 10.6342 17.794C9.70895 17.794 9.24089 16.9969 8.61384 16.9969C7.96003 16.9969 7.51052 17.794 6.29539 17.794L6.03676 17.794L6.03676 19.058ZM12.2931 5.35896C11.9673 5.75139 11.7404 6.15235 11.7404 6.77689C11.7404 7.1906 11.94 7.5441 12.2347 7.73042L12.2347 10.3085L10.412 10.3085C9.02263 10.3085 8.28994 11.0213 8.28994 12.4041L8.28994 12.8848L17.1508 12.8848L17.1508 12.4041C17.1508 11.0239 16.4247 10.3085 15.0287 10.3085L13.192 10.3085L13.192 7.74186C13.4954 7.5579 13.6948 7.19869 13.6948 6.77689C13.6948 6.18261 13.5104 5.77913 13.1769 5.39872C12.9184 5.08105 12.5542 5.07584 12.2931 5.35896ZM6.29539 16.9297C7.22944 16.9297 7.71179 16.1326 8.61384 16.1326C9.51431 16.1326 9.90481 16.9297 10.6342 16.9297C11.4361 16.9297 11.8074 16.1326 12.7147 16.1326C13.6234 16.1326 13.9892 16.9297 14.8007 16.9297C15.5301 16.9297 15.9165 16.1326 16.817 16.1326C17.719 16.1326 18.1999 16.9297 19.134 16.9297L19.4039 16.9297L19.4039 15.8705C19.4039 14.4917 18.6764 13.7749 17.2819 13.7749L8.16133 13.7749C6.76534 13.7749 6.03676 14.4892 6.03676 15.8705L6.03676 16.9297Z" fill="black" fill-opacity="0.85"/>
 </g>
</svg>
