<?xml version="1.0" encoding="UTF-8"?>
<!--Generator: Apple Native CoreSVG 326-->
<!DOCTYPE svg
PUBLIC "-//W3C//DTD SVG 1.1//EN"
       "http://www.w3.org/Graphics/SVG/1.1/DTD/svg11.dtd">
<svg version="1.1" xmlns="http://www.w3.org/2000/svg" xmlns:xlink="http://www.w3.org/1999/xlink" viewBox="0 0 19.9197 20.0136">
 <g>
  <rect height="20.0136" opacity="0" width="19.9197" x="0" y="0"/>
  <path d="M19.9197 9.95469C19.9197 15.4407 15.4511 19.9094 9.95469 19.9094C4.46866 19.9094 4.44089e-16 15.4407 4.44089e-16 9.95469C4.44089e-16 4.46866 4.46866 0 9.95469 0C15.4511 0 19.9197 4.46866 19.9197 9.95469ZM4.30204 14.8982C3.98473 14.8982 3.72406 15.1592 3.72406 15.4762C3.72406 15.7969 3.98473 16.0542 4.30204 16.0542L15.6179 16.0542C15.9349 16.0542 16.1959 15.7969 16.1959 15.4762C16.1959 15.1592 15.9349 14.8982 15.6179 14.8982L15.2899 14.8982L15.2899 14.0183L15.0677 14.0183C14.0949 14.0183 13.7384 13.3807 13.2184 13.3807C12.7212 13.3807 12.3452 14.0183 11.6172 14.0183C10.8657 14.0183 10.4729 13.3807 9.95883 13.3807C9.4414 13.3807 9.0489 14.0183 8.30412 14.0183C7.5728 14.0183 7.19682 13.3807 6.6996 13.3807C6.17624 13.3807 5.81966 14.0183 4.84996 14.0183L4.63036 14.0183L4.63036 14.8982ZM9.58673 4.10127C9.3321 4.41016 9.14456 4.74142 9.14456 5.25361C9.14456 5.58638 9.3007 5.87296 9.53429 6.03112L9.53429 8.01787L8.17688 8.01787C7.01619 8.01787 6.41096 8.6054 6.41096 9.76019L6.41096 10.0413L13.5093 10.0413L13.5093 9.76019C13.5093 8.60793 12.91 8.01787 11.7434 8.01787L10.3803 8.01787L10.3803 6.03741C10.6181 5.88058 10.772 5.5908 10.772 5.25361C10.772 4.76737 10.6201 4.43358 10.3578 4.13668C10.1367 3.86395 9.81041 3.85838 9.58673 4.10127ZM4.84996 13.28C5.58426 13.28 5.9824 12.6424 6.6996 12.6424C7.41596 12.6424 7.73319 13.28 8.30412 13.28C8.93534 13.28 9.23605 12.6424 9.95883 12.6424C10.6819 12.6424 10.9789 13.28 11.6172 13.28C12.1881 13.28 12.502 12.6424 13.2184 12.6424C13.9356 12.6424 14.3334 13.28 15.0677 13.28L15.2899 13.28L15.2899 12.526C15.2899 11.3741 14.6902 10.7837 13.524 10.7837L6.39883 10.7837C5.23223 10.7837 4.63036 11.3715 4.63036 12.526L4.63036 13.28Z" fill="black" fill-opacity="0.85"/>
 </g>
</svg>
